<svg xmlns="http://www.w3.org/2000/svg" width="1000" height="400" viewBox="0 0 1000 400">
  <rect width="1000" height="400" fill="#ffffff"/>

  <!-- Icon: soft wedge / forward-tilted geometric form -->
  <g transform="translate(200 200)">
    <path d="M -70 60 L 60 60 Q 72 60 66 48 L 6 -62 Q 0 -72 -6 -62 L -76 60 Q -82 72 -70 60 Z"
          fill="#0A0A0A"/>
  </g>

  <!-- Divider -->
  <line x1="380" y1="120" x2="380" y2="280" stroke="#e6e4dd" stroke-width="1"/>

  <!-- Wordmark -->
  <g transform="translate(430 0)">
    <text x="0" y="230"
          font-family="'Inter', 'SF Pro Display', 'Helvetica Neue', ui-sans-serif, system-ui"
          font-size="110" font-weight="800" letter-spacing="-2" fill="#0A0A0A">BNDR</text>
    <text x="4" y="268"
          font-family="'Inter', 'SF Pro Display', 'Helvetica Neue', ui-sans-serif, system-ui"
          font-size="16" font-weight="500" letter-spacing="10" fill="#6B6B65">CAPITAL</text>
  </g>

  <!-- App icon preview -->
  <g transform="translate(860 300)">
    <rect x="0" y="0" width="80" height="80" rx="18" fill="#0A0A0A"/>
    <path d="M 18 60 L 60 60 Q 66 60 63 54 L 43 14 Q 40 8 37 14 L 15 54 Q 12 60 18 60 Z"
          fill="#ffffff"/>
  </g>

  <text x="900" y="280"
        text-anchor="middle"
        font-family="'Inter', ui-sans-serif, system-ui"
        font-size="9" font-weight="500" letter-spacing="2" fill="#8a8a85">APP ICON</text>
</svg>
